<mxfile host="app.diagrams.net" modified="2023-03-24T21:43:17.172Z" agent="Mozilla/5.0 (Macintosh; Intel Mac OS X 10_15_7) AppleWebKit/537.36 (KHTML, like Gecko) Chrome/111.0.0.0 Safari/537.36" etag="cs3xb2bb_F7n8Mz1K4Oe" version="21.1.0" type="device">
  <diagram name="Page-1" id="i_6ueZ7OMv6X63Mmf0E6">
    <mxGraphModel dx="1073" dy="1692" grid="1" gridSize="10" guides="1" tooltips="1" connect="1" arrows="1" fold="1" page="1" pageScale="1" pageWidth="850" pageHeight="1100" math="0" shadow="0">
      <root>
        <mxCell id="0" />
        <mxCell id="1" parent="0" />
        <mxCell id="aABT6ERgP-9sgJPgGYa4-4" style="edgeStyle=orthogonalEdgeStyle;rounded=0;orthogonalLoop=1;jettySize=auto;html=1;entryX=0;entryY=0.25;entryDx=0;entryDy=0;" parent="1" source="aABT6ERgP-9sgJPgGYa4-1" target="aABT6ERgP-9sgJPgGYa4-3" edge="1">
          <mxGeometry relative="1" as="geometry" />
        </mxCell>
        <mxCell id="aABT6ERgP-9sgJPgGYa4-1" value="public_150k_plus_230101.csv" style="shape=image;html=1;verticalAlign=top;verticalLabelPosition=bottom;labelBackgroundColor=#ffffff;imageAspect=0;aspect=fixed;image=https://cdn1.iconfinder.com/data/icons/bootstrap-vol-3/16/filetype-csv-128.png" parent="1" vertex="1">
          <mxGeometry x="74.4" y="50" width="128" height="128" as="geometry" />
        </mxCell>
        <mxCell id="aABT6ERgP-9sgJPgGYa4-9" value="" style="edgeStyle=orthogonalEdgeStyle;rounded=0;orthogonalLoop=1;jettySize=auto;html=1;" parent="1" source="aABT6ERgP-9sgJPgGYa4-3" target="aABT6ERgP-9sgJPgGYa4-8" edge="1">
          <mxGeometry relative="1" as="geometry" />
        </mxCell>
        <mxCell id="aABT6ERgP-9sgJPgGYa4-3" value="Read In Data" style="shape=image;html=1;verticalAlign=top;verticalLabelPosition=bottom;labelBackgroundColor=#ffffff;imageAspect=0;aspect=fixed;image=https://cdn1.iconfinder.com/data/icons/ionicons-fill-vol-2/512/logo-python-128.png" parent="1" vertex="1">
          <mxGeometry x="270" y="170" width="128" height="128" as="geometry" />
        </mxCell>
        <mxCell id="aABT6ERgP-9sgJPgGYa4-11" value="" style="edgeStyle=orthogonalEdgeStyle;rounded=0;orthogonalLoop=1;jettySize=auto;html=1;" parent="1" source="aABT6ERgP-9sgJPgGYa4-8" target="aABT6ERgP-9sgJPgGYa4-10" edge="1">
          <mxGeometry relative="1" as="geometry" />
        </mxCell>
        <mxCell id="aABT6ERgP-9sgJPgGYa4-8" value="Clean Data" style="shape=image;html=1;verticalAlign=top;verticalLabelPosition=bottom;labelBackgroundColor=#ffffff;imageAspect=0;aspect=fixed;image=https://cdn1.iconfinder.com/data/icons/ionicons-fill-vol-2/512/logo-python-128.png" parent="1" vertex="1">
          <mxGeometry x="470" y="170" width="128" height="128" as="geometry" />
        </mxCell>
        <mxCell id="aABT6ERgP-9sgJPgGYa4-13" value="" style="edgeStyle=orthogonalEdgeStyle;rounded=0;orthogonalLoop=1;jettySize=auto;html=1;" parent="1" source="aABT6ERgP-9sgJPgGYa4-10" target="aABT6ERgP-9sgJPgGYa4-12" edge="1">
          <mxGeometry relative="1" as="geometry" />
        </mxCell>
        <mxCell id="aABT6ERgP-9sgJPgGYa4-10" value="Feature Engineering: Create New Featurs" style="shape=image;html=1;verticalAlign=top;verticalLabelPosition=bottom;labelBackgroundColor=#ffffff;imageAspect=0;aspect=fixed;image=https://cdn0.iconfinder.com/data/icons/evericons-24px-vol-1/24/file-create-128.png" parent="1" vertex="1">
          <mxGeometry x="680" y="170" width="128" height="128" as="geometry" />
        </mxCell>
        <mxCell id="aABT6ERgP-9sgJPgGYa4-15" value="" style="edgeStyle=orthogonalEdgeStyle;rounded=0;orthogonalLoop=1;jettySize=auto;html=1;" parent="1" source="aABT6ERgP-9sgJPgGYa4-12" target="aABT6ERgP-9sgJPgGYa4-14" edge="1">
          <mxGeometry relative="1" as="geometry" />
        </mxCell>
        <mxCell id="aABT6ERgP-9sgJPgGYa4-12" value="EDA Plots" style="shape=image;html=1;verticalAlign=top;verticalLabelPosition=bottom;labelBackgroundColor=#ffffff;imageAspect=0;aspect=fixed;image=https://cdn0.iconfinder.com/data/icons/thin-line-icons-for-seo-and-development-1/64/Programming_Development_analysis-128.png" parent="1" vertex="1">
          <mxGeometry x="910" y="170" width="128" height="128" as="geometry" />
        </mxCell>
        <mxCell id="aABT6ERgP-9sgJPgGYa4-21" style="edgeStyle=orthogonalEdgeStyle;rounded=0;orthogonalLoop=1;jettySize=auto;html=1;" parent="1" source="aABT6ERgP-9sgJPgGYa4-14" target="aABT6ERgP-9sgJPgGYa4-16" edge="1">
          <mxGeometry relative="1" as="geometry">
            <Array as="points">
              <mxPoint x="1264" y="234" />
              <mxPoint x="1264" y="500" />
            </Array>
          </mxGeometry>
        </mxCell>
        <mxCell id="aABT6ERgP-9sgJPgGYa4-14" value="Feature Selection" style="shape=image;html=1;verticalAlign=top;verticalLabelPosition=bottom;labelBackgroundColor=#ffffff;imageAspect=0;aspect=fixed;image=https://cdn2.iconfinder.com/data/icons/boxicons-regular-vol-3/24/bx-select-multiple-128.png" parent="1" vertex="1">
          <mxGeometry x="1120" y="170" width="128" height="128" as="geometry" />
        </mxCell>
        <mxCell id="aABT6ERgP-9sgJPgGYa4-23" style="edgeStyle=orthogonalEdgeStyle;rounded=0;orthogonalLoop=1;jettySize=auto;html=1;" parent="1" source="aABT6ERgP-9sgJPgGYa4-16" target="aABT6ERgP-9sgJPgGYa4-22" edge="1">
          <mxGeometry relative="1" as="geometry" />
        </mxCell>
        <mxCell id="aABT6ERgP-9sgJPgGYa4-16" value="Scikit-Learn One-Hot Ecnoding and &lt;br&gt;Standard Scaler Pipeline" style="outlineConnect=0;dashed=0;verticalLabelPosition=bottom;verticalAlign=top;align=center;html=1;shape=mxgraph.aws3.data_pipeline;fillColor=#000000;gradientColor=none;" parent="1" vertex="1">
          <mxGeometry x="1150.25" y="460" width="67.5" height="81" as="geometry" />
        </mxCell>
        <mxCell id="aABT6ERgP-9sgJPgGYa4-25" style="edgeStyle=orthogonalEdgeStyle;rounded=0;orthogonalLoop=1;jettySize=auto;html=1;" parent="1" source="aABT6ERgP-9sgJPgGYa4-22" target="aABT6ERgP-9sgJPgGYa4-24" edge="1">
          <mxGeometry relative="1" as="geometry" />
        </mxCell>
        <mxCell id="aABT6ERgP-9sgJPgGYa4-22" value="Split X and Y Variables" style="shape=image;html=1;verticalAlign=top;verticalLabelPosition=bottom;labelBackgroundColor=#ffffff;imageAspect=0;aspect=fixed;image=https://cdn0.iconfinder.com/data/icons/google-material-design-3-0/48/ic_call_split_48px-128.png" parent="1" vertex="1">
          <mxGeometry x="910" y="436.5" width="128" height="128" as="geometry" />
        </mxCell>
        <mxCell id="aABT6ERgP-9sgJPgGYa4-30" style="edgeStyle=orthogonalEdgeStyle;rounded=0;orthogonalLoop=1;jettySize=auto;html=1;" parent="1" source="aABT6ERgP-9sgJPgGYa4-24" target="aABT6ERgP-9sgJPgGYa4-29" edge="1">
          <mxGeometry relative="1" as="geometry" />
        </mxCell>
        <mxCell id="aABT6ERgP-9sgJPgGYa4-24" value="XGBoost Regression Model" style="sketch=0;outlineConnect=0;fontColor=#232F3E;gradientColor=none;fillColor=#000000;strokeColor=none;dashed=0;verticalLabelPosition=bottom;verticalAlign=top;align=center;html=1;fontSize=12;fontStyle=0;aspect=fixed;pointerEvents=1;shape=mxgraph.aws4.sagemaker_model;" parent="1" vertex="1">
          <mxGeometry x="700" y="461.5" width="78" height="78" as="geometry" />
        </mxCell>
        <mxCell id="aABT6ERgP-9sgJPgGYa4-32" style="edgeStyle=orthogonalEdgeStyle;rounded=0;orthogonalLoop=1;jettySize=auto;html=1;" parent="1" source="aABT6ERgP-9sgJPgGYa4-29" target="aABT6ERgP-9sgJPgGYa4-31" edge="1">
          <mxGeometry relative="1" as="geometry" />
        </mxCell>
        <mxCell id="aABT6ERgP-9sgJPgGYa4-29" value="Model Feature&lt;br&gt;Importance" style="shape=image;html=1;verticalAlign=top;verticalLabelPosition=bottom;labelBackgroundColor=#ffffff;imageAspect=0;aspect=fixed;image=https://cdn0.iconfinder.com/data/icons/google-material-design-3-0/48/ic_list_48px-128.png" parent="1" vertex="1">
          <mxGeometry x="480" y="436.5" width="128" height="128" as="geometry" />
        </mxCell>
        <mxCell id="aABT6ERgP-9sgJPgGYa4-38" style="edgeStyle=orthogonalEdgeStyle;rounded=0;orthogonalLoop=1;jettySize=auto;html=1;exitX=0;exitY=0.5;exitDx=0;exitDy=0;entryX=0;entryY=0.5;entryDx=0;entryDy=0;" parent="1" source="aABT6ERgP-9sgJPgGYa4-31" target="aABT6ERgP-9sgJPgGYa4-36" edge="1">
          <mxGeometry relative="1" as="geometry" />
        </mxCell>
        <mxCell id="aABT6ERgP-9sgJPgGYa4-31" value="Standardized Residuals" style="shape=image;html=1;verticalAlign=top;verticalLabelPosition=bottom;labelBackgroundColor=#ffffff;imageAspect=0;aspect=fixed;image=https://cdn1.iconfinder.com/data/icons/cloud-72/64/connection-sync-cloud-computing-input-output-server-128.png" parent="1" vertex="1">
          <mxGeometry x="270" y="437" width="128" height="128" as="geometry" />
        </mxCell>
        <mxCell id="aABT6ERgP-9sgJPgGYa4-35" style="edgeStyle=orthogonalEdgeStyle;rounded=0;orthogonalLoop=1;jettySize=auto;html=1;exitX=1;exitY=0.5;exitDx=0;exitDy=0;" parent="1" source="aABT6ERgP-9sgJPgGYa4-33" target="aABT6ERgP-9sgJPgGYa4-3" edge="1">
          <mxGeometry relative="1" as="geometry" />
        </mxCell>
        <mxCell id="aABT6ERgP-9sgJPgGYa4-33" value="geojson-counties-fips.json" style="shape=image;html=1;verticalAlign=top;verticalLabelPosition=bottom;labelBackgroundColor=#ffffff;imageAspect=0;aspect=fixed;image=https://cdn1.iconfinder.com/data/icons/bootstrap-vol-3/16/filetype-json-128.png" parent="1" vertex="1">
          <mxGeometry x="74.4" y="250" width="128" height="128" as="geometry" />
        </mxCell>
        <mxCell id="aABT6ERgP-9sgJPgGYa4-43" value="" style="edgeStyle=orthogonalEdgeStyle;rounded=0;orthogonalLoop=1;jettySize=auto;html=1;" parent="1" source="aABT6ERgP-9sgJPgGYa4-36" target="aABT6ERgP-9sgJPgGYa4-42" edge="1">
          <mxGeometry relative="1" as="geometry" />
        </mxCell>
        <mxCell id="aABT6ERgP-9sgJPgGYa4-36" value="Fraud Calculation&lt;br&gt;Based on&amp;nbsp;&lt;br&gt;Standardized Residuals" style="shape=image;html=1;verticalAlign=top;verticalLabelPosition=bottom;labelBackgroundColor=#ffffff;imageAspect=0;aspect=fixed;image=https://cdn4.iconfinder.com/data/icons/ionicons/512/icon-ios7-search-strong-128.png" parent="1" vertex="1">
          <mxGeometry x="270" y="670" width="128" height="128" as="geometry" />
        </mxCell>
        <mxCell id="koGrLYMNnREWmcUcplDk-2" style="edgeStyle=orthogonalEdgeStyle;rounded=0;orthogonalLoop=1;jettySize=auto;html=1;entryX=-0.023;entryY=0.421;entryDx=0;entryDy=0;entryPerimeter=0;" edge="1" parent="1" source="aABT6ERgP-9sgJPgGYa4-42" target="koGrLYMNnREWmcUcplDk-1">
          <mxGeometry relative="1" as="geometry" />
        </mxCell>
        <mxCell id="aABT6ERgP-9sgJPgGYa4-42" value="final_analysis_df" style="shape=image;html=1;verticalAlign=top;verticalLabelPosition=bottom;labelBackgroundColor=#ffffff;imageAspect=0;aspect=fixed;image=https://cdn1.iconfinder.com/data/icons/bootstrap-vol-3/16/filetype-csv-128.png" parent="1" vertex="1">
          <mxGeometry x="490" y="670" width="128" height="128" as="geometry" />
        </mxCell>
        <mxCell id="aABT6ERgP-9sgJPgGYa4-44" value="&lt;font style=&quot;font-size: 36px;&quot;&gt;&lt;b&gt;&lt;u style=&quot;&quot;&gt;Project Dataflow Chart&lt;/u&gt;&lt;/b&gt;&lt;/font&gt;" style="text;strokeColor=none;align=center;fillColor=none;html=1;verticalAlign=middle;whiteSpace=wrap;rounded=0;" parent="1" vertex="1">
          <mxGeometry x="202.4" width="930" height="30" as="geometry" />
        </mxCell>
        <mxCell id="koGrLYMNnREWmcUcplDk-1" value="Deploy Dash App" style="sketch=0;aspect=fixed;pointerEvents=1;shadow=0;dashed=0;html=1;strokeColor=none;labelPosition=center;verticalLabelPosition=bottom;verticalAlign=top;align=center;fillColor=#000000;shape=mxgraph.mscae.enterprise.client_application" vertex="1" parent="1">
          <mxGeometry x="720" y="700" width="128.13" height="82" as="geometry" />
        </mxCell>
      </root>
    </mxGraphModel>
  </diagram>
</mxfile>
